<mxfile host="app.diagrams.net" modified="2023-02-28T10:00:56.891Z" agent="5.0 (Windows NT 10.0; Win64; x64) AppleWebKit/537.36 (KHTML, like Gecko) Chrome/100.0.4896.127 Safari/537.36" etag="wsDU_8Q7YorxOKgPeYT4" version="20.8.23" type="github">
  <diagram name="第 1 页" id="UqT02PjtVe9HQudxlXp8">
    <mxGraphModel dx="1728" dy="890" grid="1" gridSize="10" guides="1" tooltips="1" connect="1" arrows="1" fold="1" page="1" pageScale="1" pageWidth="827" pageHeight="1169" math="0" shadow="0">
      <root>
        <mxCell id="0" />
        <mxCell id="1" parent="0" />
        <mxCell id="2oiEZgykenzxqlBTQKg2-1" value="&lt;font style=&quot;font-size: 14px;&quot;&gt;通信指纹变换&lt;/font&gt;" style="rounded=1;whiteSpace=wrap;html=1;fillColor=#fff2cc;strokeColor=#d6b656;" vertex="1" parent="1">
          <mxGeometry x="180" y="210" width="120" height="50" as="geometry" />
        </mxCell>
        <mxCell id="2oiEZgykenzxqlBTQKg2-2" value="&lt;font style=&quot;font-size: 14px;&quot;&gt;网络元素跳变&lt;/font&gt;" style="rounded=1;whiteSpace=wrap;html=1;fillColor=#dae8fc;strokeColor=#6c8ebf;" vertex="1" parent="1">
          <mxGeometry x="470" y="210" width="120" height="50" as="geometry" />
        </mxCell>
        <mxCell id="2oiEZgykenzxqlBTQKg2-3" value="&lt;font style=&quot;font-size: 14px;&quot;&gt;网络服务&lt;br&gt;动态跃迁&lt;/font&gt;" style="rounded=1;whiteSpace=wrap;html=1;fillColor=#f8cecc;strokeColor=#b85450;" vertex="1" parent="1">
          <mxGeometry x="470" y="320" width="120" height="50" as="geometry" />
        </mxCell>
        <mxCell id="2oiEZgykenzxqlBTQKg2-4" value="&lt;span style=&quot;font-size: 14px;&quot;&gt;系统管理&lt;br&gt;子系统&lt;/span&gt;" style="rounded=1;whiteSpace=wrap;html=1;fillColor=#e1d5e7;strokeColor=#9673a6;" vertex="1" parent="1">
          <mxGeometry x="470" y="430" width="120" height="50" as="geometry" />
        </mxCell>
        <mxCell id="2oiEZgykenzxqlBTQKg2-5" value="" style="endArrow=classic;startArrow=classic;html=1;rounded=0;fontSize=14;entryX=0;entryY=0.5;entryDx=0;entryDy=0;exitX=1;exitY=0.5;exitDx=0;exitDy=0;" edge="1" parent="1" source="2oiEZgykenzxqlBTQKg2-1" target="2oiEZgykenzxqlBTQKg2-2">
          <mxGeometry width="50" height="50" relative="1" as="geometry">
            <mxPoint x="410" y="280" as="sourcePoint" />
            <mxPoint x="460" y="230" as="targetPoint" />
          </mxGeometry>
        </mxCell>
        <mxCell id="2oiEZgykenzxqlBTQKg2-6" value="拟态变形数据流" style="edgeLabel;html=1;align=center;verticalAlign=middle;resizable=0;points=[];fontSize=14;" vertex="1" connectable="0" parent="2oiEZgykenzxqlBTQKg2-5">
          <mxGeometry x="-0.1824" relative="1" as="geometry">
            <mxPoint x="16" as="offset" />
          </mxGeometry>
        </mxCell>
      </root>
    </mxGraphModel>
  </diagram>
</mxfile>
